<svg xmlns="http://www.w3.org/2000/svg" viewBox="41 1 24 41" width="240" height="410" role="img" aria-label="Cinderella Castle">
  <g fill="none" stroke="currentColor" stroke-width="1.3" stroke-linecap="round" stroke-linejoin="round">
    <g id="castle">
      <title>Cinderella Castle</title>
      <path d="M42 41 V31 H43 V28 L44 24 L45 28 V31 H46 V26 H47 V22 L48 19 L49 22 V20 H50 V14 L51 11 L52 14 L53 2 L54 14 L55 11 L56 14 V20 H57 V22 L58 19 L59 22 V26 H60 V29 L61 26 L62 29 V31 H63 V35 H64 V41"/>
      <path d="M50.5 41 V38 Q53 35 55.5 38 V41"/>
    </g>
  </g>
</svg>
